<svg id="Layer_1" data-name="Layer 1" xmlns="http://www.w3.org/2000/svg" xmlns:xlink="http://www.w3.org/1999/xlink" viewBox="0 0 109.32 109.31"><defs><style>.cls-1{fill:none;}.cls-2{fill:url(#linear-gradient);}.cls-3{fill:url(#linear-gradient-2);}.cls-4{fill:url(#linear-gradient-3);}.cls-5{fill:url(#linear-gradient-4);}.cls-6{fill:url(#linear-gradient-5);}.cls-7{fill:url(#linear-gradient-6);}.cls-8{fill:#fbfefd;}</style><linearGradient id="linear-gradient" x1="152.31" y1="51.16" x2="152.31" y2="147.63" gradientUnits="userSpaceOnUse"><stop offset="0" stop-color="#431937"/><stop offset="1" stop-color="#5e1121"/></linearGradient><linearGradient id="linear-gradient-2" x1="98.27" y1="45.19" x2="98.27" y2="153.49" gradientUnits="userSpaceOnUse"><stop offset="0" stop-color="#8e8996"/><stop offset="0" stop-color="#8e8996"/><stop offset="0.13" stop-color="#9e8f90"/><stop offset="0.28" stop-color="#a7928c"/><stop offset="0.49" stop-color="#aa938b"/><stop offset="0.69" stop-color="#a9898a"/><stop offset="1" stop-color="#a87f88"/></linearGradient><linearGradient id="linear-gradient-3" x1="96.48" y1="53.84" x2="96.48" y2="144.84" gradientUnits="userSpaceOnUse"><stop offset="0" stop-color="#a598a9"/><stop offset="0.06" stop-color="#b09aa3"/><stop offset="0.19" stop-color="#c19e98"/><stop offset="0.33" stop-color="#cca092"/><stop offset="0.5" stop-color="#cfa190"/><stop offset="0.92" stop-color="#c08e8e"/><stop offset="1" stop-color="#bd8a8e"/></linearGradient><linearGradient id="linear-gradient-4" x1="141.78" y1="34.6" x2="141.78" y2="157.28" gradientUnits="userSpaceOnUse"><stop offset="0" stop-color="#5c3154"/><stop offset="1" stop-color="#97213d"/></linearGradient><linearGradient id="linear-gradient-5" x1="91.8" y1="63.33" x2="91.8" y2="135.38" gradientUnits="userSpaceOnUse"><stop offset="0" stop-color="#e8b8ab"/><stop offset="0.37" stop-color="#e9b4aa"/><stop offset="0.72" stop-color="#eaa9a7"/><stop offset="1" stop-color="#ed9aa2"/></linearGradient><linearGradient id="linear-gradient-6" x1="128.23" y1="47.86" x2="128.23" y2="137.92" gradientUnits="userSpaceOnUse"><stop offset="0" stop-color="#a25c80"/><stop offset="0.23" stop-color="#ae5578"/><stop offset="0.64" stop-color="#cc4362"/><stop offset="1" stop-color="#ec304c"/></linearGradient></defs><ellipse cx="54.69" cy="54.81" rx="54" ry="53.5"/><path class="cls-1" d="M137.71,50.6a54.67,54.67,0,1,0,29.92,48.74A54.41,54.41,0,0,0,137.71,50.6Zm-.21,97a54.17,54.17,0,1,1,29.62-48.29A53.89,53.89,0,0,1,137.5,147.63Zm.21-91.27a49.59,49.59,0,1,0,24.86,43A49.26,49.26,0,0,0,137.71,56.36Z" transform="translate(-58.31 -44.69)"/><path class="cls-2" d="M167.12,99.34a54.15,54.15,0,0,1-29.62,48.29v-5.18a49.59,49.59,0,0,0,.21-86.09v-5.2A54.14,54.14,0,0,1,167.12,99.34Z" transform="translate(-58.31 -44.69)"/><path class="cls-3" d="M63.38,99.34a49.59,49.59,0,0,0,74.12,43.11v5.18a54.15,54.15,0,1,1,.21-96.47v5.2a49.59,49.59,0,0,0-74.33,43Z" transform="translate(-58.31 -44.69)"/><path class="cls-1" d="M125.49,55.07A46,46,0,1,0,159,99.34,45.78,45.78,0,0,0,125.49,55.07Zm-.4,88.13a45.51,45.51,0,1,1,33.38-43.86A45.29,45.29,0,0,1,125.09,143.2Zm.4-82.38a40.51,40.51,0,1,0,28,38.52A40.17,40.17,0,0,0,125.49,60.82Z" transform="translate(-58.31 -44.69)"/><path class="cls-4" d="M72.47,99.34A40.54,40.54,0,0,0,125.09,138v5.2a45.5,45.5,0,1,1,.4-87.61v5.23a40.51,40.51,0,0,0-53,38.52Z" transform="translate(-58.31 -44.69)"/><path class="cls-5" d="M158.47,99.34a45.5,45.5,0,0,1-33.38,43.86V138a40.51,40.51,0,0,0,.4-77.18V55.59A45.5,45.5,0,0,1,158.47,99.34Z" transform="translate(-58.31 -44.69)"/><path class="cls-6" d="M107.14,129.79v5.59a36.51,36.51,0,0,1-.14-72v5.58a31,31,0,0,0,.14,60.88Z" transform="translate(-58.31 -44.69)"/><path class="cls-7" d="M149.47,99.34a36.5,36.5,0,0,1-36.5,36.5,37.39,37.39,0,0,1-5.83-.46v-5.59A31,31,0,1,0,113,68.34a31.72,31.72,0,0,0-6,.57V63.33a36.51,36.51,0,0,1,42.47,36Z" transform="translate(-58.31 -44.69)"/><g id="Ellipse_7" data-name="Ellipse 7"><path class="cls-8" d="M110.83,72.92a26.5,26.5,0,1,0,28.55,28.58A26.61,26.61,0,0,0,110.83,72.92Zm8.71,28.46-1.65,1.6-1.19-1.36-.06-.06-.72-.66-2.67,2.67a.82.82,0,0,0,0,1.16l1.41,1.41-8.35,8.17s-2.09,3,0,4.86l.87.87A21.5,21.5,0,0,1,110.81,78,20.92,20.92,0,0,1,123,80l-.46.38L108.31,94.31s-2.09,3,0,4.86l3.23,3.23,2.63-2.63-2-2a1.77,1.77,0,0,1,.66-2.23c-.31,0,13-13,13-13l1,.66c6.47,4.85,9.11,12.27,7,21.33a21.29,21.29,0,0,1-22.58,16.31s1.92,2,1.88,2l1-1-4-4a1.77,1.77,0,0,1,.66-2.23c0-.16,3.33-3.5,6.55-6.68l3.25,3.25a.82.82,0,0,0,1.16,0l1.66-1.66a.82.82,0,0,0,0-1.12l-3.06-3.48,2.87-2.82" transform="translate(-58.31 -44.69)"/></g></svg>